<svg xmlns="http://www.w3.org/2000/svg" viewBox="0 0 278 72" role="img" aria-labelledby="title desc">
  <title id="title">AlphaGate logo</title>
  <desc id="desc">AlphaGate wordmark with an alpha-shaped gate logo mark.</desc>
  <defs>
    <linearGradient id="ag-word-gate" x1="12" y1="64" x2="60" y2="8" gradientUnits="userSpaceOnUse">
      <stop offset="0" stop-color="#2cf6b3"/>
      <stop offset="0.5" stop-color="#56ccff"/>
      <stop offset="1" stop-color="#9b8cff"/>
    </linearGradient>
    <linearGradient id="ag-word-text" x1="82" y1="22" x2="265" y2="51" gradientUnits="userSpaceOnUse">
      <stop offset="0" stop-color="#ffffff"/>
      <stop offset="0.55" stop-color="#dbeafe"/>
      <stop offset="1" stop-color="#9fb7ff"/>
    </linearGradient>
  </defs>
  <rect x="5" y="5" width="62" height="62" rx="16" fill="#0b0d14" stroke="#2d3345" stroke-width="2"/>
  <path d="M15 58 31 13h10l16 45H46.5l-3.3-10H28.8L25.5 58H15Z" fill="url(#ag-word-gate)"/>
  <path d="M31.4 39h9.2L36 25.2 31.4 39Z" fill="#11131d"/>
  <path d="M21 58V44h9v14h-9Zm21 0V44h9v14h-9Z" fill="#0b0d14"/>
  <path d="M21 47h30" stroke="#f7fafc" stroke-width="4" stroke-linecap="round"/>
  <path d="M25 35h7l3.7-8.2L41 49l3.3-10H49" fill="none" stroke="#2cf6b3" stroke-width="3.4" stroke-linecap="round" stroke-linejoin="round"/>
  <text x="84" y="44" fill="url(#ag-word-text)" font-family="Inter, Arial, sans-serif" font-size="30" font-weight="800" letter-spacing="0">AlphaGate</text>
  <text x="86" y="58" fill="#8c96ad" font-family="JetBrains Mono, Consolas, monospace" font-size="8.5" font-weight="700" letter-spacing="1.5">VALIDATE . GATE . EXECUTE</text>
</svg>
